# xmcd
#
# Track frame offsets: 
#        150
#        18299
#        32316
#        50179
#        62282
#        80772
#        93468
#        105244
#        117086
#        126089
#        162565
#        187300
#        202372
#        224888
#        237697
#        250154
#        264967
#        280575
#        293292
#
# Disc length: 4581 seconds
#
# Revision: 1
# Processed by: cddbd v1.5.2PL0 Copyright (c) Steve Scherf et al.
# Submitted via: ExactAudioCopy v1.0b1
#
DISCID=1811e313
DTITLE=Swamp Dogg - The Excellent Sides Of Swamp Dogg Volume 2
DYEAR=1996
DGENRE=Soul
TTITLE0=Sam Stone
TTITLE1=Complication #5
TTITLE2=Lady Madonna
TTITLE3=You Say You Trust Your Mother
TTITLE4=If It Hadn't Been For Sly
TTITLE5=Your Last Dirty Trick
TTITLE6=Knowing I'm Pleasing Me and You
TTITLE7=In My Resume
TTITLE8=Captain Of Your Ship
TTITLE9=Don't It Make You Wanta Go Home
TTITLE10=Choking To Death From The Ties That Bind
TTITLE11=Please Let Me Kiss You Goodbye
TTITLE12=Mighty Mighty Dollar Bill
TTITLE13=T.T.
TTITLE14=Midnight Hour
TTITLE15=Why Must We Fall (When We Fall In Love)
TTITLE16=Wifesitter
TTITLE17=I Couldn't Pay For What I Got Last Night
TTITLE18=God Bless America For What (Live)
EXTD=
EXTT0=
EXTT1=
EXTT2=
EXTT3=
EXTT4=
EXTT5=
EXTT6=
EXTT7=
EXTT8=
EXTT9=
EXTT10=
EXTT11=
EXTT12=
EXTT13=
EXTT14=
EXTT15=
EXTT16=
EXTT17=
EXTT18=
PLAYORDER=
